<svg width="512" height="512" viewBox="0 0 512 512" fill="none" xmlns="http://www.w3.org/2000/svg">
<path d="M256.002 113.801H104.124V137.487H256.002V113.801Z" fill="#CBBBA0"/>
<path d="M390.997 125.643H272.871V190.782H390.997V125.643Z" fill="#CBBBA0"/>
<path d="M402 208.837H250V397.837H402V208.837Z" fill="#F9B233"/>
<path d="M369 362.837H284V397.837H369V362.837Z" fill="#CBBBA0"/>
<path d="M250 131.837H110V397.837H250V131.837Z" fill="#FAC15C"/>
<path d="M352 152.599H337.597V137.837H326.402V152.599H312V164.074H326.402V178.837H337.597V164.074H352V152.599Z" fill="#BE1622"/>
<path d="M407.761 392.234V202.741H374.011V196.577H396.511V119.837H267.365V196.577H289.864V202.741H255.885V125.759H104.24V392.235H76V403.837H436V392.235H407.761V392.234ZM278.385 131.439H385.49V184.975H278.385V131.439ZM300.885 196.577H362.989V202.741H300.885V196.577ZM396.74 214.343V392.235H374.011V356.705H278.615V392.235H255.885V214.343H396.74ZM362.99 392.234H289.636V368.306H362.99V392.234ZM115.26 137.36H244.865V392.234H115.26V137.36Z" fill="#1D1D1B"/>
<path d="M290 231.837H279V255.837H290V231.837Z" fill="white"/>
<path d="M317.762 232.23H306.741V255.915H317.762V232.23Z" fill="#1D1D1B"/>
<path d="M345.887 232.23H334.866V255.915H345.887V232.23Z" fill="#1D1D1B"/>
<path d="M374 231.837H363V255.837H374V231.837Z" fill="white"/>
<path d="M290 273.837H279V297.837H290V273.837Z" fill="#1D1D1B"/>
<path d="M318 273.837H307V297.837H318V273.837Z" fill="white"/>
<path d="M345.887 273.678H334.866V297.364H345.887V273.678Z" fill="#1D1D1B"/>
<path d="M374.011 273.678H362.99V297.364H374.011V273.678Z" fill="#1D1D1B"/>
<path d="M289.637 315.135H278.617V338.82H289.637V315.135Z" fill="#1D1D1B"/>
<path d="M317.762 315.135H306.741V338.82H317.762V315.135Z" fill="#1D1D1B"/>
<path d="M346 314.837H335V338.837H346V314.837Z" fill="white"/>
<path d="M374.011 315.135H362.99V338.821H374.011V315.135Z" fill="#1D1D1B"/>
<path d="M143.387 149.333H132.367V173.019H143.387V149.333Z" fill="#1D1D1B"/>
<path d="M172 148.837H160V172.837H172V148.837Z" fill="white"/>
<path d="M199.636 149.333H188.615V173.019H199.636V149.333Z" fill="#1D1D1B"/>
<path d="M227.76 149.333H216.74V173.019H227.76V149.333Z" fill="#1D1D1B"/>
<path d="M143 190.837H132V214.837H143V190.837Z" fill="white"/>
<path d="M172 190.837H160V214.837H172V190.837Z" fill="#1D1D1B"/>
<path d="M200 190.837H189V214.837H200V190.837Z" fill="white"/>
<path d="M227.76 190.782H216.74V214.468H227.76V190.782Z" fill="#1D1D1B"/>
<path d="M143.387 232.23H132.367V255.915H143.387V232.23Z" fill="#1D1D1B"/>
<path d="M171.512 232.23H160.491V255.915H171.512V232.23Z" fill="#1D1D1B"/>
<path d="M199.636 232.23H188.615V255.915H199.636V232.23Z" fill="#1D1D1B"/>
<path d="M228 231.837H217V255.837H228V231.837Z" fill="white"/>
<path d="M143 273.837H132V297.837H143V273.837Z" fill="#1D1D1B"/>
<path d="M171.512 273.678H160.491V297.364H171.512V273.678Z" fill="white"/>
<path d="M199.636 273.678H188.615V297.364H199.636V273.678Z" fill="white"/>
<path d="M227.76 273.678H216.74V297.364H227.76V273.678Z" fill="#1D1D1B"/>
<path d="M143.387 315.135H132.367V338.82H143.387V315.135Z" fill="#1D1D1B"/>
<path d="M172 314.837H160V338.837H172V314.837Z" fill="white"/>
<path d="M199.636 315.135H188.615V338.821H199.636V315.135Z" fill="#1D1D1B"/>
<path d="M227.76 315.135H216.74V338.821H227.76V315.135Z" fill="#1D1D1B"/>
<path d="M143 356.837H132V379.837H143V356.837Z" fill="white"/>
<path d="M172 356.837H160V379.837H172V356.837Z" fill="#1D1D1B"/>
<path d="M200 356.837H189V379.837H200V356.837Z" fill="white"/>
<path d="M227.76 356.584H216.74V380.27H227.76V356.584Z" fill="#1D1D1B"/>
<path d="M256.002 108H104.124V119.602H256.002V108Z" fill="#1D1D1B"/>
</svg>
